<?xml version="1.0" encoding="UTF-8"?>
<svg width="1000" height="800" xmlns="http://www.w3.org/2000/svg">
  <!-- 背景 -->
  <rect width="1000" height="800" fill="#f8f9fa" />
  
  <!-- 标题 -->
  <text x="500" y="40" font-family="Arial, sans-serif" font-size="24" font-weight="bold" text-anchor="middle" fill="#1890ff">党支部综合能力画像数据关系图</text>
  
  <!-- 中心节点：支部综合能力画像 -->
  <circle cx="500" cy="300" r="80" fill="#e6f7ff" stroke="#1890ff" stroke-width="2" />
  <text x="500" y="290" font-family="Arial, sans-serif" font-size="16" font-weight="bold" text-anchor="middle" fill="#1890ff">支部综合能力画像</text>
  <text x="500" y="310" font-family="Arial, sans-serif" font-size="12" text-anchor="middle" fill="#333333">BranchCapabilityData</text>
  
  <!-- 基础评价数据节点 -->
  <circle cx="250" cy="200" r="70" fill="#fff1f0" stroke="#f5222d" stroke-width="2" />
  <text x="250" y="190" font-family="Arial, sans-serif" font-size="14" font-weight="bold" text-anchor="middle" fill="#f5222d">基础评价数据</text>
  <text x="250" y="210" font-family="Arial, sans-serif" font-size="12" text-anchor="middle" fill="#333333">BaseDimension</text>
  
  <!-- 管理赋值数据节点 -->
  <circle cx="250" cy="400" r="70" fill="#f6ffed" stroke="#52c41a" stroke-width="2" />
  <text x="250" y="390" font-family="Arial, sans-serif" font-size="14" font-weight="bold" text-anchor="middle" fill="#52c41a">管理赋值数据</text>
  <text x="250" y="410" font-family="Arial, sans-serif" font-size="12" text-anchor="middle" fill="#333333">ManagementScore</text>
  
  <!-- 支部人员数据节点 -->
  <circle cx="750" cy="200" r="70" fill="#e6fffb" stroke="#13c2c2" stroke-width="2" />
  <text x="750" y="190" font-family="Arial, sans-serif" font-size="14" font-weight="bold" text-anchor="middle" fill="#13c2c2">支部人员数据</text>
  <text x="750" y="210" font-family="Arial, sans-serif" font-size="12" text-anchor="middle" fill="#333333">Branch</text>
  
  <!-- 年度工作数据节点 -->
  <circle cx="750" cy="400" r="70" fill="#f9f0ff" stroke="#722ed1" stroke-width="2" />
  <text x="750" y="390" font-family="Arial, sans-serif" font-size="14" font-weight="bold" text-anchor="middle" fill="#722ed1">年度工作数据</text>
  <text x="750" y="410" font-family="Arial, sans-serif" font-size="12" text-anchor="middle" fill="#333333">AnnualWork</text>
  
  <!-- 连接线 -->
  <line x1="320" y1="200" x2="420" y2="300" stroke="#1890ff" stroke-width="2" />
  <line x1="320" y1="400" x2="420" y2="300" stroke="#1890ff" stroke-width="2" />
  <line x1="680" y1="200" x2="580" y2="300" stroke="#1890ff" stroke-width="2" />
  <line x1="680" y1="400" x2="580" y2="300" stroke="#1890ff" stroke-width="2" />
  
  <!-- 连接说明 -->
  <text x="350" y="230" font-family="Arial, sans-serif" font-size="12" text-anchor="middle" fill="#333333" transform="rotate(-30, 350, 230)">组成部分</text>
  <text x="350" y="370" font-family="Arial, sans-serif" font-size="12" text-anchor="middle" fill="#333333" transform="rotate(30, 350, 370)">组成部分</text>
  <text x="650" y="230" font-family="Arial, sans-serif" font-size="12" text-anchor="middle" fill="#333333" transform="rotate(30, 650, 230)">关联数据</text>
  <text x="650" y="370" font-family="Arial, sans-serif" font-size="12" text-anchor="middle" fill="#333333" transform="rotate(-30, 650, 370)">关联数据</text>
  
  <!-- 基础评价数据子节点 -->
  <circle cx="100" cy="100" r="40" fill="#fff1f0" stroke="#f5222d" stroke-width="1" />
  <text x="100" y="100" font-family="Arial, sans-serif" font-size="10" text-anchor="middle" fill="#333333">组织管理水平</text>
  
  <circle cx="180" cy="80" r="40" fill="#fff1f0" stroke="#f5222d" stroke-width="1" />
  <text x="180" y="80" font-family="Arial, sans-serif" font-size="10" text-anchor="middle" fill="#333333">考核指标执行</text>
  
  <circle cx="260" cy="80" r="40" fill="#fff1f0" stroke="#f5222d" stroke-width="1" />
  <text x="260" y="80" font-family="Arial, sans-serif" font-size="10" text-anchor="middle" fill="#333333">人才培养创新</text>
  
  <circle cx="340" cy="100" r="40" fill="#fff1f0" stroke="#f5222d" stroke-width="1" />
  <text x="340" y="100" font-family="Arial, sans-serif" font-size="10" text-anchor="middle" fill="#333333">党建基础工作</text>
  
  <circle cx="100" cy="180" r="40" fill="#fff1f0" stroke="#f5222d" stroke-width="1" />
  <text x="100" y="180" font-family="Arial, sans-serif" font-size="10" text-anchor="middle" fill="#333333">任务跟进落实</text>
  
  <circle cx="100" cy="260" r="40" fill="#fff1f0" stroke="#f5222d" stroke-width="1" />
  <text x="100" y="260" font-family="Arial, sans-serif" font-size="10" text-anchor="middle" fill="#333333">安全廉洁底线</text>
  
  <circle cx="180" cy="280" r="40" fill="#fff1f0" stroke="#f5222d" stroke-width="1" />
  <text x="180" y="280" font-family="Arial, sans-serif" font-size="10" text-anchor="middle" fill="#333333">群众满意度</text>
  
  <!-- 管理赋值数据子节点 -->
  <circle cx="100" cy="340" r="40" fill="#f6ffed" stroke="#52c41a" stroke-width="1" />
  <text x="100" y="340" font-family="Arial, sans-serif" font-size="10" text-anchor="middle" fill="#333333">特殊贡献赋值</text>
  
  <circle cx="100" cy="420" r="40" fill="#f6ffed" stroke="#52c41a" stroke-width="1" />
  <text x="100" y="420" font-family="Arial, sans-serif" font-size="10" text-anchor="middle" fill="#333333">创新工作赋值</text>
  
  <circle cx="100" cy="500" r="40" fill="#f6ffed" stroke="#52c41a" stroke-width="1" />
  <text x="100" y="500" font-family="Arial, sans-serif" font-size="10" text-anchor="middle" fill="#333333">战略任务赋值</text>
  
  <circle cx="180" cy="520" r="40" fill="#f6ffed" stroke="#52c41a" stroke-width="1" />
  <text x="180" y="520" font-family="Arial, sans-serif" font-size="10" text-anchor="middle" fill="#333333">管理裁量赋值</text>
  
  <circle cx="260" cy="520" r="40" fill="#f6ffed" stroke="#52c41a" stroke-width="1" />
  <text x="260" y="520" font-family="Arial, sans-serif" font-size="10" text-anchor="middle" fill="#333333">突发事件应对赋值</text>
  
  <!-- 支部人员数据子节点 -->
  <circle cx="660" cy="100" r="40" fill="#e6fffb" stroke="#13c2c2" stroke-width="1" />
  <text x="660" y="100" font-family="Arial, sans-serif" font-size="10" text-anchor="middle" fill="#333333">年龄分布</text>
  
  <circle cx="740" cy="80" r="40" fill="#e6fffb" stroke="#13c2c2" stroke-width="1" />
  <text x="740" y="80" font-family="Arial, sans-serif" font-size="10" text-anchor="middle" fill="#333333">学历分布</text>
  
  <circle cx="820" cy="80" r="40" fill="#e6fffb" stroke="#13c2c2" stroke-width="1" />
  <text x="820" y="80" font-family="Arial, sans-serif" font-size="10" text-anchor="middle" fill="#333333">技能等级分布</text>
  
  <circle cx="900" cy="100" r="40" fill="#e6fffb" stroke="#13c2c2" stroke-width="1" />
  <text x="900" y="100" font-family="Arial, sans-serif" font-size="10" text-anchor="middle" fill="#333333">职称分布</text>
  
  <circle cx="900" cy="180" r="40" fill="#e6fffb" stroke="#13c2c2" stroke-width="1" />
  <text x="900" y="180" font-family="Arial, sans-serif" font-size="10" text-anchor="middle" fill="#333333">支部委员</text>
  
  <!-- 年度工作数据子节点 -->
  <circle cx="660" cy="500" r="40" fill="#f9f0ff" stroke="#722ed1" stroke-width="1" />
  <text x="660" y="500" font-family="Arial, sans-serif" font-size="10" text-anchor="middle" fill="#333333">工作任务</text>
  
  <circle cx="740" cy="520" r="40" fill="#f9f0ff" stroke="#722ed1" stroke-width="1" />
  <text x="740" y="520" font-family="Arial, sans-serif" font-size="10" text-anchor="middle" fill="#333333">时间安排</text>
  
  <circle cx="820" cy="520" r="40" fill="#f9f0ff" stroke="#722ed1" stroke-width="1" />
  <text x="820" y="520" font-family="Arial, sans-serif" font-size="10" text-anchor="middle" fill="#333333">完成状态</text>
  
  <circle cx="900" cy="500" r="40" fill="#f9f0ff" stroke="#722ed1" stroke-width="1" />
  <text x="900" y="500" font-family="Arial, sans-serif" font-size="10" text-anchor="middle" fill="#333333">完成进度</text>
  
  <!-- 连接子节点的线 -->
  <!-- 基础评价数据子节点连接线 -->
  <line x1="130" y1="130" x2="210" y2="170" stroke="#f5222d" stroke-width="1" />
  <line x1="180" y1="120" x2="220" y2="170" stroke="#f5222d" stroke-width="1" />
  <line x1="260" y1="120" x2="230" y2="170" stroke="#f5222d" stroke-width="1" />
  <line x1="310" y1="130" x2="240" y2="170" stroke="#f5222d" stroke-width="1" />
  <line x1="140" y1="180" x2="180" y2="180" stroke="#f5222d" stroke-width="1" />
  <line x1="140" y1="260" x2="210" y2="220" stroke="#f5222d" stroke-width="1" />
  <line x1="180" y1="240" x2="220" y2="210" stroke="#f5222d" stroke-width="1" />
  
  <!-- 管理赋值数据子节点连接线 -->
  <line x1="140" y1="340" x2="210" y2="370" stroke="#52c41a" stroke-width="1" />
  <line x1="140" y1="420" x2="210" y2="390" stroke="#52c41a" stroke-width="1" />
  <line x1="140" y1="500" x2="210" y2="430" stroke="#52c41a" stroke-width="1" />
  <line x1="180" y1="480" x2="220" y2="430" stroke="#52c41a" stroke-width="1" />
  <line x1="260" y1="480" x2="240" y2="430" stroke="#52c41a" stroke-width="1" />
  
  <!-- 支部人员数据子节点连接线 -->
  <line x1="690" y1="130" x2="720" y2="170" stroke="#13c2c2" stroke-width="1" />
  <line x1="740" y1="120" x2="740" y2="170" stroke="#13c2c2" stroke-width="1" />
  <line x1="820" y1="120" x2="760" y2="170" stroke="#13c2c2" stroke-width="1" />
  <line x1="870" y1="130" x2="780" y2="170" stroke="#13c2c2" stroke-width="1" />
  <line x1="860" y1="180" x2="790" y2="180" stroke="#13c2c2" stroke-width="1" />
  
  <!-- 年度工作数据子节点连接线 -->
  <line x1="690" y1="470" x2="720" y2="430" stroke="#722ed1" stroke-width="1" />
  <line x1="740" y1="480" x2="740" y2="430" stroke="#722ed1" stroke-width="1" />
  <line x1="820" y1="480" x2="760" y2="430" stroke="#722ed1" stroke-width="1" />
  <line x1="870" y1="470" x2="780" y2="430" stroke="#722ed1" stroke-width="1" />
  
  <!-- 数据展示节点 -->
  <rect x="200" y="600" width="600" height="120" rx="10" ry="10" fill="#f0f5ff" stroke="#2f54eb" stroke-width="2" />
  <text x="500" y="630" font-family="Arial, sans-serif" font-size="18" font-weight="bold" text-anchor="middle" fill="#2f54eb">数据展示</text>
  
  <rect x="220" y="650" width="100" height="50" rx="5" ry="5" fill="#ffffff" stroke="#2f54eb" stroke-width="1" />
  <text x="270" y="680" font-family="Arial, sans-serif" font-size="12" text-anchor="middle" fill="#333333">雷达图</text>
  
  <rect x="340" y="650" width="100" height="50" rx="5" ry="5" fill="#ffffff" stroke="#2f54eb" stroke-width="1" />
  <text x="390" y="680" font-family="Arial, sans-serif" font-size="12" text-anchor="middle" fill="#333333">柱状图</text>
  
  <rect x="460" y="650" width="100" height="50" rx="5" ry="5" fill="#ffffff" stroke="#2f54eb" stroke-width="1" />
  <text x="510" y="680" font-family="Arial, sans-serif" font-size="12" text-anchor="middle" fill="#333333">趋势图</text>
  
  <rect x="580" y="650" width="100" height="50" rx="5" ry="5" fill="#ffffff" stroke="#2f54eb" stroke-width="1" />
  <text x="630" y="680" font-family="Arial, sans-serif" font-size="12" text-anchor="middle" fill="#333333">热力图</text>
  
  <rect x="700" y="650" width="100" height="50" rx="5" ry="5" fill="#ffffff" stroke="#2f54eb" stroke-width="1" />
  <text x="750" y="680" font-family="Arial, sans-serif" font-size="12" text-anchor="middle" fill="#333333">月度工作视图</text>
  
  <!-- 中心节点到数据展示的连接线 -->
  <line x1="500" y1="380" x2="500" y2="600" stroke="#2f54eb" stroke-width="2" />
  
  <!-- 图例 -->
  <rect x="50" y="750" width="15" height="15" fill="#fff1f0" stroke="#f5222d" stroke-width="1" />
  <text x="75" y="763" font-family="Arial, sans-serif" font-size="12" fill="#333333">基础评价数据</text>
  
  <rect x="200" y="750" width="15" height="15" fill="#f6ffed" stroke="#52c41a" stroke-width="1" />
  <text x="225" y="763" font-family="Arial, sans-serif" font-size="12" fill="#333333">管理赋值数据</text>
  
  <rect x="350" y="750" width="15" height="15" fill="#e6fffb" stroke="#13c2c2" stroke-width="1" />
  <text x="375" y="763" font-family="Arial, sans-serif" font-size="12" fill="#333333">支部人员数据</text>
  
  <rect x="500" y="750" width="15" height="15" fill="#f9f0ff" stroke="#722ed1" stroke-width="1" />
  <text x="525" y="763" font-family="Arial, sans-serif" font-size="12" fill="#333333">年度工作数据</text>
  
  <rect x="650" y="750" width="15" height="15" fill="#e6f7ff" stroke="#1890ff" stroke-width="1" />
  <text x="675" y="763" font-family="Arial, sans-serif" font-size="12" fill="#333333">支部综合能力画像</text>
  
  <rect x="800" y="750" width="15" height="15" fill="#f0f5ff" stroke="#2f54eb" stroke-width="1" />
  <text x="825" y="763" font-family="Arial, sans-serif" font-size="12" fill="#333333">数据展示</text>
</svg>
