<?xml version="1.0" encoding="UTF-8" standalone="no"?>
<svg xmlns="http://www.w3.org/2000/svg" xmlns:xlink="http://www.w3.org/1999/xlink" width="1000" height="1200" viewBox="0 0 1000 1200">
  <style>
    .box {
      fill: #ffffff;
      stroke: #333333;
      stroke-width: 2;
      rx: 10;
      ry: 10;
    }
    .data-source {
      fill: #e6f7ff;
      stroke: #1890ff;
    }
    .data-processing {
      fill: #f6ffed;
      stroke: #52c41a;
    }
    .component {
      fill: #fff7e6;
      stroke: #fa8c16;
    }
    .view {
      fill: #fff1f0;
      stroke: #f5222d;
    }
    .utility {
      fill: #f9f0ff;
      stroke: #722ed1;
    }
    .title {
      font-family: Arial, sans-serif;
      font-size: 18px;
      font-weight: bold;
      text-anchor: middle;
    }
    .subtitle {
      font-family: Arial, sans-serif;
      font-size: 14px;
      text-anchor: middle;
    }
    .label {
      font-family: Arial, sans-serif;
      font-size: 12px;
      text-anchor: middle;
    }
    .arrow {
      fill: none;
      stroke: #333333;
      stroke-width: 2;
      marker-end: url(#arrowhead);
    }
    .dashed {
      stroke-dasharray: 5, 5;
    }
  </style>
  
  <defs>
    <marker id="arrowhead" markerWidth="10" markerHeight="7" refX="9" refY="3.5" orient="auto">
      <polygon points="0 0, 10 3.5, 0 7" fill="#333333" />
    </marker>
  </defs>
  
  <!-- Title -->
  <text x="500" y="30" class="title" style="font-size: 24px;">党支部数据展示系统 - 数据流关系图</text>
  
  <!-- Data Source Layer -->
  <rect x="100" y="80" width="800" height="150" class="box" fill="#f0f5ff" stroke="#597ef7" opacity="0.3" />
  <text x="500" y="100" class="title">数据源层</text>
  
  <rect x="150" y="120" width="200" height="80" class="box data-source" />
  <text x="250" y="150" class="title">API服务器</text>
  <text x="250" y="170" class="subtitle">/api/branches</text>
  
  <rect x="400" y="120" width="200" height="80" class="box data-source" />
  <text x="500" y="150" class="title">本地模拟数据</text>
  <text x="500" y="170" class="subtitle">mockBranchData</text>
  
  <rect x="650" y="120" width="200" height="80" class="box data-source" />
  <text x="750" y="150" class="title">Excel导入</text>
  <text x="750" y="170" class="subtitle">用户上传数据</text>
  
  <!-- Data Processing Layer -->
  <rect x="100" y="280" width="800" height="220" class="box" fill="#f6ffed" stroke="#52c41a" opacity="0.3" />
  <text x="500" y="300" class="title">数据处理层</text>
  
  <rect x="150" y="330" width="200" height="80" class="box data-processing" />
  <text x="250" y="360" class="title">API请求处理</text>
  <text x="250" y="380" class="subtitle">axios请求</text>
  
  <rect x="650" y="330" width="200" height="80" class="box data-processing" />
  <text x="750" y="360" class="title">数据转换处理</text>
  <text x="750" y="380" class="subtitle">格式标准化</text>
  
  <rect x="200" y="430" width="600" height="50" class="box data-processing" />
  <text x="500" y="460" class="title">数据聚合与状态管理</text>
  
  <!-- Component Layer -->
  <rect x="100" y="550" width="800" height="350" class="box" fill="#fff7e6" stroke="#fa8c16" opacity="0.3" />
  <text x="500" y="570" class="title">组件层</text>
  
  <rect x="150" y="600" width="150" height="80" class="box component" />
  <text x="225" y="630" class="title">App</text>
  <text x="225" y="650" class="subtitle">主应用组件</text>
  
  <rect x="350" y="600" width="200" height="80" class="box component" />
  <text x="450" y="630" class="title">BranchCapability</text>
  <text x="450" y="650" class="subtitle">Dashboard</text>
  
  <rect x="150" y="700" width="150" height="80" class="box component" />
  <text x="225" y="730" class="title">BasicInfo</text>
  <text x="225" y="750" class="subtitle">基本信息</text>
  
  <rect x="350" y="700" width="200" height="80" class="box component" />
  <text x="450" y="730" class="title">CompactBranch</text>
  <text x="450" y="750" class="subtitle">CapabilityView</text>
  
  <rect x="150" y="800" width="150" height="80" class="box component" />
  <text x="225" y="830" class="title">Personnel</text>
  <text x="225" y="850" class="subtitle">Analysis</text>
  
  <rect x="350" y="800" width="200" height="80" class="box component" />
  <text x="450" y="830" class="title">各种图表视图</text>
  <text x="450" y="850" class="subtitle">RadarChartView等</text>
  
  <rect x="600" y="600" width="150" height="80" class="box utility" />
  <text x="675" y="630" class="title">数据格式转换</text>
  <text x="675" y="650" class="subtitle">图表配置生成</text>
  
  <rect x="600" y="700" width="150" height="80" class="box utility" />
  <text x="675" y="730" class="title">数据导出</text>
  <text x="675" y="750" class="subtitle">Excel生成</text>
  
  <rect x="600" y="800" width="150" height="80" class="box utility" />
  <text x="675" y="830" class="title">数据验证</text>
  <text x="675" y="850" class="subtitle">错误处理</text>
  
  <!-- View Layer -->
  <rect x="100" y="950" width="800" height="200" class="box" fill="#fff1f0" stroke="#f5222d" opacity="0.3" />
  <text x="500" y="970" class="title">视图层</text>
  
  <rect x="150" y="1000" width="150" height="60" class="box view" />
  <text x="225" y="1030" class="title">登录视图</text>
  
  <rect x="350" y="1000" width="150" height="60" class="box view" />
  <text x="425" y="1030" class="title">主应用视图</text>
  
  <rect x="150" y="1070" width="150" height="60" class="box view" />
  <text x="225" y="1100" class="title">支部详情视图</text>
  
  <rect x="350" y="1070" width="150" height="60" class="box view" />
  <text x="425" y="1100" class="title">全部支部视图</text>
  
  <rect x="550" y="1000" width="150" height="60" class="box view" />
  <text x="625" y="1030" class="title">数据导入视图</text>
  
  <rect x="550" y="1070" width="150" height="60" class="box view" />
  <text x="625" y="1100" class="title">报表导出视图</text>
  
  <!-- Arrows -->
  <!-- Data Source to Data Processing -->
  <path d="M 250,200 L 250,330" class="arrow" />
  <path d="M 500,200 L 500,250 L 250,250 L 250,330" class="arrow" />
  <path d="M 750,200 L 750,330" class="arrow" />
  
  <!-- Data Processing to State Management -->
  <path d="M 250,410 L 250,455" class="arrow" />
  <path d="M 750,410 L 750,455" class="arrow" />
  
  <!-- State Management to Components -->
  <path d="M 500,480 L 500,530 L 225,530 L 225,600" class="arrow" />
  <path d="M 500,480 L 500,530 L 450,530 L 450,600" class="arrow" />
  
  <!-- Component Relationships -->
  <path d="M 225,680 L 225,700" class="arrow" />
  <path d="M 450,680 L 450,700" class="arrow" />
  <path d="M 225,780 L 225,800" class="arrow" />
  <path d="M 450,780 L 450,800" class="arrow" />
  
  <!-- Components to Views -->
  <path d="M 225,880 L 225,930 L 225,1000" class="arrow" />
  <path d="M 450,880 L 450,930 L 425,930 L 425,1000" class="arrow" />
  
  <!-- Utility Functions -->
  <path d="M 550,640 L 600,640" class="arrow" dashed="true" />
  <path d="M 550,740 L 600,740" class="arrow" dashed="true" />
  <path d="M 550,840 L 600,840" class="arrow" dashed="true" />
  
  <!-- User Interaction -->
  <path d="M 425,1000 L 425,950 L 500,950 L 500,480" class="arrow" stroke="#f5222d" />
  
  <!-- Legend -->
  <rect x="800" y="1150" width="20" height="20" class="box data-source" />
  <text x="830" y="1165" class="label" text-anchor="start">数据源</text>
  
  <rect x="800" y="1175" width="20" height="20" class="box data-processing" />
  <text x="830" y="1190" class="label" text-anchor="start">数据处理</text>
  
  <rect x="900" y="1150" width="20" height="20" class="box component" />
  <text x="930" y="1165" class="label" text-anchor="start">组件</text>
  
  <rect x="900" y="1175" width="20" height="20" class="box view" />
  <text x="930" y="1190" class="label" text-anchor="start">视图</text>
</svg>
